<svg id="visual" viewBox="0 0 960 540" width="960" height="540" xmlns="http://www.w3.org/2000/svg" xmlns:xlink="http://www.w3.org/1999/xlink" version="1.1"><rect x="0" y="0" width="960" height="540" fill="#E5DED1"></rect><defs><linearGradient id="grad1_0" x1="43.8%" y1="0%" x2="100%" y2="100%"><stop offset="14.444444444444446%" stop-color="#e5ded1" stop-opacity="1"></stop><stop offset="85.55555555555554%" stop-color="#e5ded1" stop-opacity="1"></stop></linearGradient></defs><defs><linearGradient id="grad2_0" x1="0%" y1="0%" x2="56.3%" y2="100%"><stop offset="14.444444444444446%" stop-color="#e5ded1" stop-opacity="1"></stop><stop offset="85.55555555555554%" stop-color="#e5ded1" stop-opacity="1"></stop></linearGradient></defs><g transform="translate(960, 0)"><path d="M0 270C-19.4 253.1 -38.9 236.1 -61.9 230.9C-84.8 225.6 -111.4 232.1 -128 221.7C-144.6 211.4 -151.3 184.2 -168.3 168.3C-185.3 152.4 -212.7 147.7 -230.4 133C-248 118.3 -255.8 93.7 -260.8 69.9C-265.8 46.1 -267.9 23 -270 0L0 0Z" fill="#a6bd9e"></path></g><g transform="translate(0, 540)"><path d="M0 -270C24 -269.2 47.9 -268.4 69.6 -259.8C91.3 -251.3 110.7 -234.9 125 -216.5C139.3 -198.1 148.4 -177.6 162.6 -162.6C176.8 -147.6 196.1 -138.1 214.8 -124C233.5 -109.9 251.7 -91.3 260.8 -69.9C269.9 -48.5 270 -24.2 270 0L0 0Z" fill="#a6bd9e"></path></g></svg>