<svg id="visual" viewBox="0 0 900 600" width="900" height="600" xmlns="http://www.w3.org/2000/svg" xmlns:xlink="http://www.w3.org/1999/xlink" version="1.1"><path d="M0 139L180 97L360 139L540 127L720 121L900 139L900 0L720 0L540 0L360 0L180 0L0 0Z" fill="#efe7da"></path><path d="M0 301L180 337L360 301L540 337L720 283L900 331L900 137L720 119L540 125L360 137L180 95L0 137Z" fill="#dbd8c3"></path><path d="M0 517L180 493L360 499L540 511L720 493L900 487L900 329L720 281L540 335L360 299L180 335L0 299Z" fill="#c2caae"></path><path d="M0 601L180 601L360 601L540 601L720 601L900 601L900 485L720 491L540 509L360 497L180 491L0 515Z" fill="#a6bd9e"></path></svg>