<svg id="visual" viewBox="0 0 900 600" width="900" height="600" xmlns="http://www.w3.org/2000/svg" xmlns:xlink="http://www.w3.org/1999/xlink" version="1.1"><g stroke-width="1" stroke-linejoin="bevel"><path d="M431 311L463 383L475 299Z" fill="#9eb696" stroke="#9eb696"></path><path d="M463 383L569 311L475 299Z" fill="#9cb493" stroke="#9cb493"></path><path d="M431 311L383 439L463 383Z" fill="#a1b998" stroke="#a1b998"></path><path d="M463 383L598 390L569 311Z" fill="#96b08d" stroke="#96b08d"></path><path d="M576 222L474 209L475 299Z" fill="#8ca783" stroke="#8ca783"></path><path d="M475 299L474 209L431 311Z" fill="#96b08d" stroke="#96b08d"></path><path d="M581 484L598 390L463 383Z" fill="#99b290" stroke="#99b290"></path><path d="M383 439L412 489L463 383Z" fill="#99b290" stroke="#99b290"></path><path d="M732 332L576 222L569 311Z" fill="#a1b998" stroke="#a1b998"></path><path d="M569 311L576 222L475 299Z" fill="#9cb493" stroke="#9cb493"></path><path d="M474 209L416 176L431 311Z" fill="#9eb696" stroke="#9eb696"></path><path d="M431 311L283 284L383 439Z" fill="#a1b998" stroke="#a1b998"></path><path d="M492 124L416 176L474 209Z" fill="#99b290" stroke="#99b290"></path><path d="M466 528L581 484L463 383Z" fill="#94ae8b" stroke="#94ae8b"></path><path d="M412 489L466 528L463 383Z" fill="#8fa986" stroke="#8fa986"></path><path d="M416 176L283 284L431 311Z" fill="#a3bb9b" stroke="#a3bb9b"></path><path d="M383 439L263 521L412 489Z" fill="#99b290" stroke="#99b290"></path><path d="M283 284L274 416L383 439Z" fill="#9eb696" stroke="#9eb696"></path><path d="M412 489L382 600L466 528Z" fill="#a3bb9b" stroke="#a3bb9b"></path><path d="M576 222L492 124L474 209Z" fill="#99b290" stroke="#99b290"></path><path d="M307 131L307 160L416 176Z" fill="#a3bb9b" stroke="#a3bb9b"></path><path d="M416 176L307 160L283 284Z" fill="#a6bd9e" stroke="#a6bd9e"></path><path d="M581 484L686 430L598 390Z" fill="#9eb696" stroke="#9eb696"></path><path d="M598 390L732 332L569 311Z" fill="#96b08d" stroke="#96b08d"></path><path d="M283 284L229 400L274 416Z" fill="#8fa986" stroke="#8fa986"></path><path d="M274 416L263 521L383 439Z" fill="#9cb493" stroke="#9cb493"></path><path d="M185 322L229 400L283 284Z" fill="#a1b998" stroke="#a1b998"></path><path d="M307 160L226 239L283 284Z" fill="#a1b998" stroke="#a1b998"></path><path d="M381 70L307 131L416 176Z" fill="#91ab88" stroke="#91ab88"></path><path d="M307 160L165 98L226 239Z" fill="#9cb493" stroke="#9cb493"></path><path d="M575 600L675 500L581 484Z" fill="#9eb696" stroke="#9eb696"></path><path d="M581 484L675 500L686 430Z" fill="#a1b998" stroke="#a1b998"></path><path d="M237 517L263 521L274 416Z" fill="#a1b998" stroke="#a1b998"></path><path d="M789 413L732 332L686 430Z" fill="#94ae8b" stroke="#94ae8b"></path><path d="M686 430L732 332L598 390Z" fill="#96b08d" stroke="#96b08d"></path><path d="M576 222L601 60L492 124Z" fill="#a6bd9e" stroke="#a6bd9e"></path><path d="M382 600L535 600L466 528Z" fill="#91ab88" stroke="#91ab88"></path><path d="M466 528L535 600L581 484Z" fill="#a3bb9b" stroke="#a3bb9b"></path><path d="M304 600L382 600L412 489Z" fill="#94ae8b" stroke="#94ae8b"></path><path d="M226 239L185 322L283 284Z" fill="#99b290" stroke="#99b290"></path><path d="M229 400L237 517L274 416Z" fill="#a6bd9e" stroke="#a6bd9e"></path><path d="M492 124L381 70L416 176Z" fill="#9eb696" stroke="#9eb696"></path><path d="M535 600L575 600L581 484Z" fill="#99b290" stroke="#99b290"></path><path d="M120 401L237 517L229 400Z" fill="#96b08d" stroke="#96b08d"></path><path d="M263 521L304 600L412 489Z" fill="#94ae8b" stroke="#94ae8b"></path><path d="M190 600L304 600L263 521Z" fill="#96b08d" stroke="#96b08d"></path><path d="M705 80L601 60L576 222Z" fill="#99b290" stroke="#99b290"></path><path d="M492 124L438 0L381 70Z" fill="#99b290" stroke="#99b290"></path><path d="M732 332L737 177L576 222Z" fill="#a1b998" stroke="#a1b998"></path><path d="M226 239L138 298L185 322Z" fill="#99b290" stroke="#99b290"></path><path d="M185 322L120 401L229 400Z" fill="#9eb696" stroke="#9eb696"></path><path d="M83 187L138 298L226 239Z" fill="#a6bd9e" stroke="#a6bd9e"></path><path d="M675 500L789 413L686 430Z" fill="#96b08d" stroke="#96b08d"></path><path d="M732 332L797 292L737 177Z" fill="#96b08d" stroke="#96b08d"></path><path d="M838 505L789 413L675 500Z" fill="#96b08d" stroke="#96b08d"></path><path d="M789 413L797 292L732 332Z" fill="#a1b998" stroke="#a1b998"></path><path d="M563 0L464 0L492 124Z" fill="#8ca783" stroke="#8ca783"></path><path d="M261 0L165 98L307 131Z" fill="#8fa986" stroke="#8fa986"></path><path d="M464 0L438 0L492 124Z" fill="#9eb696" stroke="#9eb696"></path><path d="M307 131L165 98L307 160Z" fill="#8ca783" stroke="#8ca783"></path><path d="M138 298L120 401L185 322Z" fill="#94ae8b" stroke="#94ae8b"></path><path d="M237 517L190 600L263 521Z" fill="#91ab88" stroke="#91ab88"></path><path d="M601 60L563 0L492 124Z" fill="#a6bd9e" stroke="#a6bd9e"></path><path d="M684 0L563 0L601 60Z" fill="#94ae8b" stroke="#94ae8b"></path><path d="M770 69L705 80L737 177Z" fill="#91ab88" stroke="#91ab88"></path><path d="M737 177L705 80L576 222Z" fill="#94ae8b" stroke="#94ae8b"></path><path d="M575 600L711 600L675 500Z" fill="#99b290" stroke="#99b290"></path><path d="M74 487L190 600L237 517Z" fill="#8fa986" stroke="#8fa986"></path><path d="M261 0L307 131L381 70Z" fill="#9eb696" stroke="#9eb696"></path><path d="M138 298L0 335L120 401Z" fill="#94ae8b" stroke="#94ae8b"></path><path d="M797 292L819 187L737 177Z" fill="#a6bd9e" stroke="#a6bd9e"></path><path d="M900 232L819 187L797 292Z" fill="#99b290" stroke="#99b290"></path><path d="M438 0L261 0L381 70Z" fill="#9cb493" stroke="#9cb493"></path><path d="M770 69L684 0L705 80Z" fill="#9eb696" stroke="#9eb696"></path><path d="M705 80L684 0L601 60Z" fill="#a1b998" stroke="#a1b998"></path><path d="M114 122L83 187L226 239Z" fill="#99b290" stroke="#99b290"></path><path d="M819 187L770 69L737 177Z" fill="#9cb493" stroke="#9cb493"></path><path d="M711 600L838 505L675 500Z" fill="#a6bd9e" stroke="#a6bd9e"></path><path d="M789 413L900 338L797 292Z" fill="#91ab88" stroke="#91ab88"></path><path d="M165 98L114 122L226 239Z" fill="#91ab88" stroke="#91ab88"></path><path d="M131 0L114 122L165 98Z" fill="#96b08d" stroke="#96b08d"></path><path d="M0 429L74 487L120 401Z" fill="#8fa986" stroke="#8fa986"></path><path d="M120 401L74 487L237 517Z" fill="#99b290" stroke="#99b290"></path><path d="M900 409L900 338L789 413Z" fill="#a6bd9e" stroke="#a6bd9e"></path><path d="M819 187L900 106L770 69Z" fill="#91ab88" stroke="#91ab88"></path><path d="M261 0L180 0L165 98Z" fill="#99b290" stroke="#99b290"></path><path d="M838 505L900 409L789 413Z" fill="#96b08d" stroke="#96b08d"></path><path d="M711 600L829 600L838 505Z" fill="#9cb493" stroke="#9cb493"></path><path d="M838 505L900 509L900 409Z" fill="#9cb493" stroke="#9cb493"></path><path d="M74 487L96 600L190 600Z" fill="#94ae8b" stroke="#94ae8b"></path><path d="M900 338L900 232L797 292Z" fill="#8fa986" stroke="#8fa986"></path><path d="M0 212L138 298L83 187Z" fill="#91ab88" stroke="#91ab88"></path><path d="M0 212L0 335L138 298Z" fill="#9cb493" stroke="#9cb493"></path><path d="M74 487L0 532L96 600Z" fill="#96b08d" stroke="#96b08d"></path><path d="M900 0L783 0L770 69Z" fill="#a6bd9e" stroke="#a6bd9e"></path><path d="M770 69L783 0L684 0Z" fill="#a3bb9b" stroke="#a3bb9b"></path><path d="M900 600L900 509L838 505Z" fill="#96b08d" stroke="#96b08d"></path><path d="M0 335L0 429L120 401Z" fill="#a1b998" stroke="#a1b998"></path><path d="M180 0L131 0L165 98Z" fill="#8ca783" stroke="#8ca783"></path><path d="M0 125L0 212L83 187Z" fill="#a3bb9b" stroke="#a3bb9b"></path><path d="M0 125L83 187L114 122Z" fill="#94ae8b" stroke="#94ae8b"></path><path d="M900 232L900 106L819 187Z" fill="#8fa986" stroke="#8fa986"></path><path d="M0 429L0 532L74 487Z" fill="#99b290" stroke="#99b290"></path><path d="M829 600L900 600L838 505Z" fill="#a6bd9e" stroke="#a6bd9e"></path><path d="M0 0L0 125L114 122Z" fill="#8ca783" stroke="#8ca783"></path><path d="M0 532L0 600L96 600Z" fill="#9cb493" stroke="#9cb493"></path><path d="M900 106L900 0L770 69Z" fill="#a1b998" stroke="#a1b998"></path><path d="M131 0L0 0L114 122Z" fill="#9cb493" stroke="#9cb493"></path></g></svg>