<svg id="visual" viewBox="0 0 900 600" width="900" height="600" xmlns="http://www.w3.org/2000/svg" xmlns:xlink="http://www.w3.org/1999/xlink" version="1.1"><path d="M0 61L150 61L300 55L450 61L600 49L750 49L900 49L900 0L750 0L600 0L450 0L300 0L150 0L0 0Z" fill="#efe7da"></path><path d="M0 163L150 157L300 163L450 157L600 133L750 163L900 127L900 47L750 47L600 47L450 59L300 53L150 59L0 59Z" fill="#e4decc"></path><path d="M0 295L150 307L300 301L450 313L600 271L750 289L900 259L900 125L750 161L600 131L450 155L300 161L150 155L0 161Z" fill="#d6d5be"></path><path d="M0 385L150 373L300 385L450 373L600 349L750 361L900 349L900 257L750 287L600 269L450 311L300 299L150 305L0 293Z" fill="#c7cdb2"></path><path d="M0 445L150 439L300 457L450 445L600 409L750 421L900 403L900 347L750 359L600 347L450 371L300 383L150 371L0 383Z" fill="#b7c5a7"></path><path d="M0 601L150 601L300 601L450 601L600 601L750 601L900 601L900 401L750 419L600 407L450 443L300 455L150 437L0 443Z" fill="#a6bd9e"></path></svg>