<svg id="visual" viewBox="0 0 960 540" width="960" height="540" xmlns="http://www.w3.org/2000/svg" xmlns:xlink="http://www.w3.org/1999/xlink" version="1.1"><path d="M0 44L160 33L320 66L480 44L640 60L800 50L960 55L960 0L800 0L640 0L480 0L320 0L160 0L0 0Z" fill="#efe7da"></path><path d="M0 77L160 71L320 93L480 87L640 98L800 77L960 104L960 53L800 48L640 58L480 42L320 64L160 31L0 42Z" fill="#d8d4be"></path><path d="M0 163L160 158L320 147L480 185L640 152L800 131L960 201L960 102L800 75L640 96L480 85L320 91L160 69L0 75Z" fill="#bdc3a5"></path><path d="M0 303L160 330L320 298L480 309L640 352L800 341L960 303L960 199L800 129L640 150L480 183L320 145L160 156L0 161Z" fill="#9db390"></path><path d="M0 428L160 428L320 438L480 411L640 438L800 455L960 422L960 301L800 339L640 350L480 307L320 296L160 328L0 301Z" fill="#79a381"></path><path d="M0 471L160 476L320 482L480 476L640 509L800 503L960 465L960 420L800 453L640 436L480 409L320 436L160 426L0 426Z" fill="#4f9377"></path><path d="M0 541L160 541L320 541L480 541L640 541L800 541L960 541L960 463L800 501L640 507L480 474L320 480L160 474L0 469Z" fill="#038373"></path></svg>